<svg version="1.1" id="Layer_1" xmlns="http://www.w3.org/2000/svg" xmlns:xlink="http://www.w3.org/1999/xlink" x="0px" y="0px"
	 width="100%" viewBox="0 0 751 748" enable-background="new 0 0 751 748" xml:space="preserve">
<path fill="#000000" opacity="1.000000" stroke="none" 
	d="
M508.000000,749.000000 
	C338.666656,749.000000 169.833328,749.000000 1.000000,749.000000 
	C1.000000,499.666656 1.000000,250.333328 1.000000,1.000000 
	C251.333328,1.000000 501.666656,1.000000 752.000000,1.000000 
	C752.000000,250.333328 752.000000,499.666656 752.000000,749.000000 
	C670.833313,749.000000 589.666687,749.000000 508.000000,749.000000 
M303.500244,111.590332 
	C257.850952,111.587242 212.201630,111.569283 166.552353,111.599663 
	C160.776978,111.603508 154.962067,111.476807 149.233475,112.068642 
	C126.746216,114.391853 109.204681,125.164215 96.319412,143.685242 
	C86.412651,157.925003 82.228516,173.591675 82.882339,190.983734 
	C83.785759,215.015198 94.413116,234.177887 112.741234,248.407822 
	C125.994743,258.697815 141.710571,263.574341 159.333908,263.513214 
	C277.786987,263.102173 396.242188,263.248779 514.696472,263.377502 
	C523.437561,263.386993 531.939453,263.139648 540.277588,260.146362 
	C556.216614,254.424454 569.877625,245.892059 579.620422,231.509216 
	C587.696899,219.586243 592.476746,206.892380 593.326294,192.393616 
	C593.826416,183.858444 593.718445,175.369659 591.366516,167.393631 
	C588.216553,156.711273 583.372681,146.504807 575.832703,138.026215 
	C567.326904,128.461639 557.317322,121.011765 545.223633,116.255302 
	C533.260132,111.550003 520.946350,111.493599 508.421844,111.519379 
	C440.448212,111.659286 372.474182,111.588531 303.500244,111.590332 
M225.389145,532.777405 
	C224.055923,534.426025 222.719513,536.072021 221.389984,537.723633 
	C212.659958,548.567993 207.890396,561.350891 206.506180,574.799622 
	C205.200775,587.482544 207.346497,600.093079 212.269241,612.319580 
	C217.908539,626.325806 227.274048,637.180054 238.984436,645.752075 
	C248.412537,652.653381 259.430023,657.587952 271.407288,658.234192 
	C289.262726,659.197632 307.162018,659.804321 325.041626,659.781494 
	C387.813141,659.701477 450.584106,659.177795 513.355652,659.091675 
	C526.090942,659.074158 538.215088,657.503662 549.831726,651.916809 
	C562.687866,645.733887 573.076416,636.905579 580.826294,625.004395 
	C588.057129,613.900269 593.529663,602.134094 593.140259,588.447632 
	C592.936829,581.297852 593.668518,573.915771 592.136902,567.049194 
	C588.040039,548.682068 578.239258,533.767029 563.113159,522.171448 
	C550.478577,512.485901 536.331055,507.172821 520.706238,507.121765 
	C440.209473,506.858734 359.711182,506.920715 279.214172,507.148254 
	C272.697601,507.166656 266.108673,508.960236 259.689667,510.497833 
	C245.931152,513.793518 235.215103,522.025391 225.389145,532.777405 
M94.270424,344.615723 
	C83.514160,362.776978 79.965202,382.228119 84.527367,402.866180 
	C88.682602,421.663422 98.835777,437.074921 114.276543,448.229706 
	C128.480164,458.490784 145.145203,462.783661 162.664093,462.789093 
	C256.803741,462.818298 350.943390,462.723022 445.083069,462.670898 
	C447.134277,462.669769 449.185455,462.670746 451.236664,462.670746 
	C423.269806,443.762848 407.804443,418.510132 408.494080,384.836060 
	C409.179779,351.355469 425.441345,326.795197 454.049133,309.185516 
	C451.637756,309.185516 449.226379,309.185333 446.815002,309.185516 
	C351.842590,309.193329 256.869843,309.095062 161.898300,309.382660 
	C152.963165,309.409698 143.819427,311.056183 135.149643,313.366119 
	C117.662270,318.025360 105.205254,329.876953 94.270424,344.615723 
M449.995758,360.602631 
	C444.670776,375.425293 444.519592,390.437195 448.877167,405.441742 
	C454.273560,424.023193 465.240051,438.434326 481.911438,448.479828 
	C500.292175,459.555389 519.740112,461.890198 540.349548,456.305725 
	C554.399658,452.498627 565.849854,444.695221 575.471863,434.010193 
	C585.908691,422.420349 592.158264,408.686584 593.837646,393.339569 
	C595.530457,377.870178 592.459595,362.931152 584.650696,349.311890 
	C576.475098,335.052979 565.051880,324.548645 549.753662,317.698761 
	C538.490112,312.655457 527.083191,311.825134 515.197693,311.961639 
	C497.461029,312.165314 482.739319,319.467316 469.707642,330.828857 
	C460.632660,338.740814 454.558929,348.754944 449.995758,360.602631 
z"/>
<path fill="#FFFFFF" opacity="1.000000" stroke="none" 
	d="
M304.000244,111.590324 
	C372.474182,111.588531 440.448212,111.659286 508.421844,111.519379 
	C520.946350,111.493599 533.260132,111.550003 545.223633,116.255302 
	C557.317322,121.011765 567.326904,128.461639 575.832703,138.026215 
	C583.372681,146.504807 588.216553,156.711273 591.366516,167.393631 
	C593.718445,175.369659 593.826416,183.858444 593.326294,192.393616 
	C592.476746,206.892380 587.696899,219.586243 579.620422,231.509216 
	C569.877625,245.892059 556.216614,254.424454 540.277588,260.146362 
	C531.939453,263.139648 523.437561,263.386993 514.696472,263.377502 
	C396.242188,263.248779 277.786987,263.102173 159.333908,263.513214 
	C141.710571,263.574341 125.994743,258.697815 112.741234,248.407822 
	C94.413116,234.177887 83.785759,215.015198 82.882339,190.983734 
	C82.228516,173.591675 86.412651,157.925003 96.319412,143.685242 
	C109.204681,125.164215 126.746216,114.391853 149.233475,112.068642 
	C154.962067,111.476807 160.776978,111.603508 166.552353,111.599663 
	C212.201630,111.569283 257.850952,111.587242 304.000244,111.590324 
z"/>
<path fill="#FFFFFF" opacity="1.000000" stroke="none" 
	d="
M225.634995,532.537109 
	C235.215103,522.025391 245.931152,513.793518 259.689667,510.497833 
	C266.108673,508.960236 272.697601,507.166656 279.214172,507.148254 
	C359.711182,506.920715 440.209473,506.858734 520.706238,507.121765 
	C536.331055,507.172821 550.478577,512.485901 563.113159,522.171448 
	C578.239258,533.767029 588.040039,548.682068 592.136902,567.049194 
	C593.668518,573.915771 592.936829,581.297852 593.140259,588.447632 
	C593.529663,602.134094 588.057129,613.900269 580.826294,625.004395 
	C573.076416,636.905579 562.687866,645.733887 549.831726,651.916809 
	C538.215088,657.503662 526.090942,659.074158 513.355652,659.091675 
	C450.584106,659.177795 387.813141,659.701477 325.041626,659.781494 
	C307.162018,659.804321 289.262726,659.197632 271.407288,658.234192 
	C259.430023,657.587952 248.412537,652.653381 238.984436,645.752075 
	C227.274048,637.180054 217.908539,626.325806 212.269241,612.319580 
	C207.346497,600.093079 205.200775,587.482544 206.506180,574.799622 
	C207.890396,561.350891 212.659958,548.567993 221.389984,537.723633 
	C222.719513,536.072021 224.055923,534.426025 225.634995,532.537109 
z"/>
<path fill="#FEFEFE" opacity="1.000000" stroke="none" 
	d="
M94.529907,344.371185 
	C105.205254,329.876953 117.662270,318.025360 135.149643,313.366119 
	C143.819427,311.056183 152.963165,309.409698 161.898300,309.382660 
	C256.869843,309.095062 351.842590,309.193329 446.815002,309.185516 
	C449.226379,309.185333 451.637756,309.185516 454.049133,309.185516 
	C425.441345,326.795197 409.179779,351.355469 408.494080,384.836060 
	C407.804443,418.510132 423.269806,443.762848 451.236664,462.670746 
	C449.185455,462.670746 447.134277,462.669769 445.083069,462.670898 
	C350.943390,462.723022 256.803741,462.818298 162.664093,462.789093 
	C145.145203,462.783661 128.480164,458.490784 114.276543,448.229706 
	C98.835777,437.074921 88.682602,421.663422 84.527367,402.866180 
	C79.965202,382.228119 83.514160,362.776978 94.529907,344.371185 
z"/>
<path fill="#F59E0B" opacity="1.000000" stroke="none" 
	d="
M450.026062,360.202393 
	C454.558929,348.754944 460.632660,338.740814 469.707642,330.828857 
	C482.739319,319.467316 497.461029,312.165314 515.197693,311.961639 
	C527.083191,311.825134 538.490112,312.655457 549.753662,317.698761 
	C565.051880,324.548645 576.475098,335.052979 584.650696,349.311890 
	C592.459595,362.931152 595.530457,377.870178 593.837646,393.339569 
	C592.158264,408.686584 585.908691,422.420349 575.471863,434.010193 
	C565.849854,444.695221 554.399658,452.498627 540.349548,456.305725 
	C519.740112,461.890198 500.292175,459.555389 481.911438,448.479828 
	C465.240051,438.434326 454.273560,424.023193 448.877167,405.441742 
	C444.519592,390.437195 444.670776,375.425293 450.026062,360.202393 
z"/>
</svg>