<svg version="1.1" id="Layer_1" xmlns="http://www.w3.org/2000/svg" xmlns:xlink="http://www.w3.org/1999/xlink" x="0px" y="0px"
	 width="100%" viewBox="0 0 751 748" enable-background="new 0 0 751 748" xml:space="preserve">
<path fill="#FCFFFD" opacity="1.000000" stroke="none" 
	d="
M510.000000,749.000000 
	C340.000000,749.000000 170.500000,749.000000 1.000000,749.000000 
	C1.000000,499.666656 1.000000,250.333328 1.000000,1.000000 
	C251.333328,1.000000 501.666656,1.000000 752.000000,1.000000 
	C752.000000,250.333328 752.000000,499.666656 752.000000,749.000000 
	C671.500000,749.000000 591.000000,749.000000 510.000000,749.000000 
M542.986267,274.782166 
	C542.734680,276.329926 542.483093,277.877686 542.283142,279.107635 
	C547.699829,282.812195 550.370667,278.693481 553.875916,276.116669 
	C552.481323,275.133209 551.336914,274.326172 550.067200,273.430786 
	C550.499695,272.335480 551.042175,271.451141 551.171814,270.509979 
	C551.336182,269.317169 551.637512,267.622772 551.015686,266.977509 
	C550.283752,266.218048 547.888794,265.722473 547.485596,266.195526 
	C544.050720,270.225281 539.403931,267.654572 535.441223,268.510986 
	C531.751404,269.308441 527.720337,268.448486 523.840210,268.465698 
	C519.727478,268.483948 515.615540,268.676086 512.161194,268.773712 
	C514.363525,272.137085 516.427673,274.716278 517.794983,277.623230 
	C518.462463,279.042297 518.319702,281.281494 517.677734,282.778046 
	C516.629089,285.222595 514.872192,287.363342 513.414062,289.632263 
	C512.064148,288.267487 510.725525,286.891174 509.352661,285.549866 
	C509.138184,285.340332 508.768097,285.290009 507.838837,284.903656 
	C507.272797,285.824982 506.063690,286.876953 506.137756,287.829071 
	C506.481812,292.250488 504.164062,293.341492 500.369476,293.123322 
	C498.620056,293.022736 496.824036,292.965576 495.105469,293.240662 
	C489.802948,294.089478 484.180969,294.255005 479.312225,296.233887 
	C468.413788,300.663513 457.598633,301.427490 446.363403,298.280487 
	C442.837250,297.292816 439.338745,299.552612 438.165161,304.029022 
	C440.835938,304.206116 443.380554,304.646698 445.881561,304.470123 
	C448.844452,304.260895 454.485229,307.217346 455.480988,310.048065 
	C455.530640,310.189240 454.554932,310.691071 453.866730,310.128937 
	C443.384430,310.004150 432.902069,309.768799 422.419800,309.772003 
	C333.597595,309.799103 244.774567,309.671631 155.953552,310.030670 
	C123.226471,310.162964 94.673569,332.701569 85.806343,363.973755 
	C76.503342,396.782776 89.025803,431.760895 116.644875,449.533997 
	C129.206024,457.617188 142.886856,462.143555 158.045883,462.140930 
	C251.701187,462.124664 345.356476,462.232391 439.011780,462.278595 
	C443.326508,462.280731 447.641296,462.087891 452.681427,462.120453 
	C454.993713,464.105530 454.116302,465.609711 451.785980,466.468506 
	C450.434814,466.966492 448.852814,466.996155 447.378052,466.976929 
	C426.317505,466.702850 405.258240,466.247559 384.197144,466.137787 
	C374.496094,466.087219 364.793549,466.831757 355.088257,466.963654 
	C343.679291,467.118713 332.266602,467.000000 320.855530,467.000000 
	C281.196564,467.000000 241.532959,466.669373 201.881851,467.227722 
	C191.705322,467.371002 180.619400,465.376678 171.545761,473.029053 
	C170.540421,473.876862 166.943359,473.627808 166.433578,472.768707 
	C162.917313,466.843079 157.215408,467.198364 151.704941,467.238129 
	C151.006897,467.243164 149.420044,470.141632 149.807785,470.891479 
	C150.965500,473.130310 152.900436,474.967285 153.809875,476.078796 
	C156.205307,474.437469 157.881577,472.447479 159.722534,472.281219 
	C161.331497,472.135956 164.587051,474.032227 164.594467,475.045074 
	C164.634384,480.494446 168.750885,481.594818 172.278320,483.745392 
	C176.476700,486.305054 180.335754,489.421326 184.341812,492.296448 
	C184.064194,492.813751 183.786560,493.331055 183.508942,493.848358 
	C181.423187,494.237701 179.350189,494.727203 177.248901,494.994446 
	C173.508560,495.470154 171.037384,497.511200 170.264160,501.097565 
	C170.043198,502.122467 171.358017,504.521576 171.912033,504.504059 
	C176.022415,504.373901 180.361221,504.487915 184.152695,503.163635 
	C188.163925,501.762665 191.051727,502.426117 194.322403,504.625031 
	C195.571381,505.464752 197.623322,505.366974 199.281296,505.260376 
	C200.614166,505.174652 201.904785,504.431610 203.976013,503.717590 
	C203.739243,506.929840 203.569794,509.228607 203.372482,511.905640 
	C205.023605,511.209717 206.170013,510.726562 207.295853,510.252045 
	C211.288940,517.918518 208.448288,525.631409 201.298859,526.451599 
	C201.462509,525.759949 201.687302,525.170288 201.727005,524.568420 
	C201.814392,523.243530 201.808319,521.912415 201.840393,520.583862 
	C200.610611,521.172424 199.150269,521.509766 198.189575,522.391602 
	C193.093277,527.069153 192.254974,532.127625 195.164215,537.960999 
	C195.570557,538.775696 195.269379,540.175598 194.868179,541.123779 
	C191.805939,548.361084 190.680115,555.610413 191.379761,563.669128 
	C191.818573,568.723389 193.582825,574.580322 189.474289,579.806702 
	C187.720123,582.038086 187.381805,586.108643 187.797256,589.152771 
	C188.455322,593.974609 188.801193,597.996704 183.572678,600.524963 
	C182.819870,600.888977 182.589432,603.006775 182.658493,604.283691 
	C183.011292,610.807556 183.445404,617.330994 184.065521,623.834167 
	C184.265366,625.929993 184.695358,628.217590 185.752533,629.977417 
	C188.814178,635.073853 192.155136,640.011780 195.568268,644.884521 
	C197.838547,648.125671 200.480698,651.103821 202.839417,654.286438 
	C204.194412,656.114746 205.315948,658.116089 206.542587,660.039551 
	C207.440475,661.682617 209.207367,662.605591 211.001755,663.471497 
	C212.699387,664.290710 214.425964,665.049927 216.454056,665.979614 
	C215.107620,668.058777 214.148895,669.539246 213.213608,670.983582 
	C216.218933,674.078552 225.517487,675.215881 229.054947,673.296814 
	C231.153427,672.158325 234.557343,672.175537 235.579773,670.546692 
	C238.279648,666.245483 241.471512,665.115234 246.358551,667.409973 
	C246.386078,660.995056 251.224930,662.332214 255.828400,661.233398 
	C254.454376,659.227295 253.777710,657.274597 252.414246,656.428223 
	C248.210693,653.818909 243.855865,651.390930 239.361694,649.323059 
	C220.481689,640.635498 211.386444,624.902283 207.441849,605.420349 
	C207.369751,605.064209 208.432098,604.478394 209.378113,604.605591 
	C209.562149,605.066650 209.780914,605.517090 209.925262,605.990295 
	C220.677979,641.242188 254.229736,659.372803 281.809906,659.211060 
	C361.242126,658.745361 440.680145,659.302063 520.112854,658.881104 
	C546.032959,658.743774 566.305054,646.439758 580.912659,625.243042 
	C591.286072,610.190552 595.008789,593.156433 594.658386,574.991516 
	C600.022522,574.991638 599.680481,569.379639 602.569702,566.959595 
	C605.471802,564.528748 605.366638,561.690002 604.292664,558.397705 
	C602.883545,554.078186 601.560974,549.698669 600.675110,545.250488 
	C599.986267,541.792114 601.136353,537.537415 599.520752,534.777100 
	C595.258423,527.495178 592.572815,518.850342 584.213257,514.518799 
	C582.163879,513.456909 580.594360,511.468994 578.817261,509.918213 
	C583.021973,504.891724 583.389648,503.596649 578.440002,500.207642 
	C572.284058,495.992767 565.272095,493.045990 558.762817,489.319092 
	C556.653625,488.111450 554.963623,486.171844 553.081848,484.567047 
	C554.585754,482.808685 555.838745,480.718292 557.641785,479.355621 
	C562.618042,475.594604 567.810852,472.118469 572.943787,468.566925 
	C577.026001,465.742371 579.998474,461.746918 585.261963,460.080994 
	C593.162842,457.580353 594.334229,452.958435 591.213318,447.290924 
	C592.802856,442.759613 594.262390,439.469604 595.075684,436.026917 
	C595.834839,432.813782 595.956360,429.443176 596.272095,426.133606 
	C596.880249,419.758392 597.427490,413.377380 598.000000,406.249390 
	C598.000854,405.500000 598.001648,404.750610 598.749390,403.850830 
	C599.832825,397.795807 601.883850,391.720734 601.759155,385.690704 
	C601.596680,377.832825 599.935242,369.968567 598.491699,362.186279 
	C597.322266,355.882019 595.625793,349.667023 593.965820,343.465210 
	C592.787720,339.063843 591.325317,334.735809 589.895508,330.406158 
	C589.434204,329.009460 588.491577,327.764984 588.079651,326.359833 
	C585.960144,319.129517 582.702271,312.485260 576.399475,308.151184 
	C573.375916,306.072113 569.059204,305.887878 566.001953,303.839661 
	C562.961487,301.802673 558.838501,298.647583 558.622192,295.728485 
	C558.235352,290.507721 555.842590,291.045166 552.504822,291.270966 
	C550.628906,291.397858 548.730164,291.187073 546.841675,291.128418 
	C546.920044,289.334991 546.998413,287.541565 547.075562,285.775452 
	C542.028992,285.929535 534.696838,282.666351 535.189514,279.998901 
	C535.925842,276.012482 538.668701,273.752777 542.986267,274.782166 
M414.500244,111.408318 
	C332.360474,111.410751 250.220688,111.384987 168.080994,111.461273 
	C160.264969,111.468536 152.345612,111.423759 144.651581,112.581635 
	C108.871887,117.966118 81.743889,152.554733 82.736267,188.547745 
	C83.880745,230.056946 116.355392,263.576660 157.857437,263.632385 
	C277.984558,263.793640 398.112335,263.851410 518.239258,263.614960 
	C569.986511,263.513092 606.194336,212.296494 589.895264,163.265442 
	C579.706543,132.615753 550.716858,111.731392 521.462891,111.638496 
	C486.142120,111.526337 450.821136,111.481934 414.500244,111.408318 
M606.611755,583.894531 
	C607.273621,584.002747 607.935425,584.110901 608.597290,584.219055 
	C608.532227,583.648743 608.467163,583.078369 608.402100,582.508057 
	C607.716309,582.773071 607.030579,583.038086 606.611755,583.894531 
z"/>
<path fill="#020201" opacity="1.000000" stroke="none" 
	d="
M415.000244,111.408264 
	C450.821136,111.481934 486.142120,111.526337 521.462891,111.638496 
	C550.716858,111.731392 579.706543,132.615753 589.895264,163.265442 
	C606.194336,212.296494 569.986511,263.513092 518.239258,263.614960 
	C398.112335,263.851410 277.984558,263.793640 157.857437,263.632385 
	C116.355392,263.576660 83.880745,230.056946 82.736267,188.547745 
	C81.743889,152.554733 108.871887,117.966118 144.651581,112.581635 
	C152.345612,111.423759 160.264969,111.468536 168.080994,111.461273 
	C250.220688,111.384987 332.360474,111.410751 415.000244,111.408264 
z"/>
<path fill="#010101" opacity="1.000000" stroke="none" 
	d="
M593.897278,575.002563 
	C595.008789,593.156433 591.286072,610.190552 580.912659,625.243042 
	C566.305054,646.439758 546.032959,658.743774 520.112854,658.881104 
	C440.680145,659.302063 361.242126,658.745361 281.809906,659.211060 
	C254.229736,659.372803 220.677979,641.242188 209.925262,605.990295 
	C209.780914,605.517090 209.562149,605.066650 209.217285,603.953735 
	C208.685562,602.201416 208.314682,601.100830 207.998154,599.650146 
	C207.751892,598.184265 207.451294,597.068420 207.207794,595.499756 
	C207.030350,591.726685 206.710648,588.409912 206.576111,585.085632 
	C206.012360,571.154724 207.610397,557.543518 215.393799,545.633972 
	C223.140686,533.780334 232.586914,523.372070 245.386124,516.112610 
	C246.812149,515.394836 247.908813,514.704712 249.372040,513.989380 
	C253.317154,512.649536 256.799469,510.721649 260.493347,510.142303 
	C269.483673,508.732300 278.562988,507.157440 287.622742,507.052216 
	C322.077728,506.651947 356.539124,506.807922 391.429321,506.843384 
	C393.907654,506.871979 395.954773,506.813202 398.462219,506.841309 
	C404.281036,506.869781 409.639587,506.811371 415.368500,506.840576 
	C416.493225,506.869873 417.247559,506.811554 418.462158,506.840271 
	C424.280975,506.868195 429.639496,506.809052 435.459412,506.838135 
	C464.053467,506.936005 492.209015,506.240479 520.312378,507.152405 
	C548.776489,508.076019 570.669800,521.475281 584.010620,546.873840 
	C588.583252,555.579285 590.673157,565.588806 593.897278,575.002563 
z"/>
<path fill="#010101" opacity="1.000000" stroke="none" 
	d="
M451.956055,461.985840 
	C447.641296,462.087891 443.326508,462.280731 439.011780,462.278595 
	C345.356476,462.232391 251.701187,462.124664 158.045883,462.140930 
	C142.886856,462.143555 129.206024,457.617188 116.644875,449.533997 
	C89.025803,431.760895 76.503342,396.782776 85.806343,363.973755 
	C94.673569,332.701569 123.226471,310.162964 155.953552,310.030670 
	C244.774567,309.671631 333.597595,309.799103 422.419800,309.772003 
	C432.902069,309.768799 443.384430,310.004150 453.945953,310.561157 
	C454.025177,310.993378 454.017365,311.037292 453.658813,311.036560 
	C448.212250,314.409485 442.688049,317.280151 438.114014,321.246552 
	C421.156921,335.951050 411.342010,354.562958 408.904419,377.452454 
	C407.180115,398.923340 411.523712,418.357361 423.601654,435.953613 
	C431.092255,446.866547 441.064667,454.878754 451.956055,461.985840 
z"/>
<path fill="#FEFFFE" opacity="1.000000" stroke="none" 
	d="
M452.318726,462.053162 
	C441.064667,454.878754 431.092255,446.866547 423.601654,435.953613 
	C411.523712,418.357361 407.180115,398.923340 409.267090,377.409302 
	C410.835297,375.600861 412.179108,374.426727 412.934662,372.951294 
	C416.427063,366.131439 419.768707,359.234070 423.132782,352.348999 
	C423.824524,350.933228 424.381073,349.451385 425.345001,347.947784 
	C430.272766,340.237915 435.211182,332.789917 442.331329,327.264709 
	C450.152954,321.195251 457.675781,313.862610 469.167725,317.914032 
	C471.306885,318.668182 473.715668,318.657623 475.963684,319.351379 
	C474.304626,322.829468 472.681885,325.956177 471.036194,329.047577 
	C471.013275,329.012238 471.092194,329.041718 470.851959,329.140991 
	C470.421783,329.521973 470.231842,329.803650 470.027679,330.049286 
	C470.013489,330.013245 470.085419,330.042053 469.847260,330.140472 
	C469.420166,330.517700 469.231201,330.796539 469.025330,331.040924 
	C469.008453,331.006470 469.076355,331.042206 468.840576,331.139771 
	C468.417603,331.513306 468.230377,331.789307 468.022949,332.033875 
	C468.002777,332.002441 468.065430,332.043152 467.831604,332.141235 
	C467.412903,332.514618 467.228027,332.789886 467.022797,333.033997 
	C467.002441,333.002869 467.065491,333.042389 466.829437,333.145142 
	C466.409241,333.529572 466.225098,333.811249 465.918304,334.385712 
	C464.553864,335.813110 463.312042,336.947723 462.015442,337.717224 
	C461.067871,333.473511 458.773499,333.470825 456.190247,335.539551 
	C453.998016,337.295166 452.235962,339.585114 450.057770,341.361816 
	C448.085571,342.970581 445.808228,344.205200 443.134644,345.951508 
	C443.035706,346.860596 443.352386,348.931061 442.563843,350.413696 
	C435.800415,363.130585 434.120911,376.786011 435.096497,390.849182 
	C435.432007,395.685669 436.160736,400.745422 438.008270,405.159729 
	C440.079895,410.109619 443.836517,414.324890 446.476562,419.072968 
	C450.743469,426.746857 454.747406,434.557343 461.745209,440.242981 
	C463.581421,441.734894 465.412231,443.643158 467.376282,440.000000 
	C468.503693,439.981812 469.254852,439.963654 470.023010,439.953644 
	C470.040039,439.961823 470.058807,439.994598 470.150085,440.217316 
	C470.436920,440.717407 470.701538,440.887207 471.020172,440.972290 
	C471.005127,440.995117 471.049896,440.963654 471.147064,441.194275 
	C471.519379,441.602112 471.794556,441.779297 472.037659,441.976837 
	C472.005585,441.997192 472.042847,441.930969 472.143433,442.168579 
	C472.527069,442.589874 472.810150,442.773529 473.053284,442.969482 
	C473.013306,442.981781 473.058167,442.911194 473.040466,443.259094 
	C473.014740,444.071350 473.006775,444.535675 472.602844,445.091370 
	C470.885254,451.982941 468.614746,458.794891 474.217499,465.006592 
	C476.051178,467.039520 477.318604,469.652191 478.551575,472.144867 
	C482.110504,479.339813 486.656219,485.427612 494.815826,487.823059 
	C495.761200,488.100616 496.667358,488.511932 497.591675,488.861237 
	C491.792877,491.350800 486.093842,493.030579 480.278290,494.036774 
	C474.514496,495.033997 468.641205,495.444855 462.801666,495.947021 
	C453.849243,496.716919 444.880188,497.295197 435.930176,498.089661 
	C434.682892,498.200348 433.503632,499.077454 431.697113,499.856781 
	C433.988953,500.972046 435.379333,501.648651 436.569122,502.227631 
	C435.933014,504.058624 435.465515,505.404266 434.998047,506.749939 
	C429.639496,506.809052 424.280975,506.868195 418.451416,506.492828 
	C417.450745,505.425232 416.921143,504.792084 416.391541,504.158936 
	C415.927063,505.023621 415.462585,505.888275 414.998108,506.752960 
	C409.639587,506.811371 404.281036,506.869781 398.443237,506.457581 
	C395.201996,502.862671 392.487061,503.162384 390.998138,506.755981 
	C356.539124,506.807922 322.077728,506.651947 287.622742,507.052216 
	C278.562988,507.157440 269.483673,508.732300 260.493347,510.142303 
	C256.799469,510.721649 253.317154,512.649536 249.175720,513.741089 
	C247.427490,514.392151 246.242126,515.266235 245.056763,516.140320 
	C232.586914,523.372070 223.140686,533.780334 215.393799,545.633972 
	C207.610397,557.543518 206.012360,571.154724 206.576111,585.085632 
	C206.710648,588.409912 207.030350,591.726685 206.878952,595.547791 
	C204.375748,598.320740 205.817657,599.286133 207.943802,600.000305 
	C208.314682,601.100830 208.685562,602.201416 209.010773,603.650879 
	C208.432098,604.478394 207.369751,605.064209 207.441849,605.420349 
	C211.386444,624.902283 220.481689,640.635498 239.361694,649.323059 
	C243.855865,651.390930 248.210693,653.818909 252.414246,656.428223 
	C253.777710,657.274597 254.454376,659.227295 255.828400,661.233398 
	C251.224930,662.332214 246.386078,660.995056 246.358551,667.409973 
	C241.471512,665.115234 238.279648,666.245483 235.579773,670.546692 
	C234.557343,672.175537 231.153427,672.158325 229.054947,673.296814 
	C225.517487,675.215881 216.218933,674.078552 213.213608,670.983582 
	C214.148895,669.539246 215.107620,668.058777 216.454056,665.979614 
	C214.425964,665.049927 212.699387,664.290710 211.001755,663.471497 
	C209.207367,662.605591 207.440475,661.682617 206.542587,660.039551 
	C205.315948,658.116089 204.194412,656.114746 202.839417,654.286438 
	C200.480698,651.103821 197.838547,648.125671 195.568268,644.884521 
	C192.155136,640.011780 188.814178,635.073853 185.752533,629.977417 
	C184.695358,628.217590 184.265366,625.929993 184.065521,623.834167 
	C183.445404,617.330994 183.011292,610.807556 182.658493,604.283691 
	C182.589432,603.006775 182.819870,600.888977 183.572678,600.524963 
	C188.801193,597.996704 188.455322,593.974609 187.797256,589.152771 
	C187.381805,586.108643 187.720123,582.038086 189.474289,579.806702 
	C193.582825,574.580322 191.818573,568.723389 191.379761,563.669128 
	C190.680115,555.610413 191.805939,548.361084 194.868179,541.123779 
	C195.269379,540.175598 195.570557,538.775696 195.164215,537.960999 
	C192.254974,532.127625 193.093277,527.069153 198.189575,522.391602 
	C199.150269,521.509766 200.610611,521.172424 201.840393,520.583862 
	C201.808319,521.912415 201.814392,523.243530 201.727005,524.568420 
	C201.687302,525.170288 201.462509,525.759949 201.298859,526.451599 
	C208.448288,525.631409 211.288940,517.918518 207.295853,510.252045 
	C206.170013,510.726562 205.023605,511.209717 203.372482,511.905640 
	C203.569794,509.228607 203.739243,506.929840 203.976013,503.717590 
	C201.904785,504.431610 200.614166,505.174652 199.281296,505.260376 
	C197.623322,505.366974 195.571381,505.464752 194.322403,504.625031 
	C191.051727,502.426117 188.163925,501.762665 184.152695,503.163635 
	C180.361221,504.487915 176.022415,504.373901 171.912033,504.504059 
	C171.358017,504.521576 170.043198,502.122467 170.264160,501.097565 
	C171.037384,497.511200 173.508560,495.470154 177.248901,494.994446 
	C179.350189,494.727203 181.423187,494.237701 183.508942,493.848358 
	C183.786560,493.331055 184.064194,492.813751 184.341812,492.296448 
	C180.335754,489.421326 176.476700,486.305054 172.278320,483.745392 
	C168.750885,481.594818 164.634384,480.494446 164.594467,475.045074 
	C164.587051,474.032227 161.331497,472.135956 159.722534,472.281219 
	C157.881577,472.447479 156.205307,474.437469 153.809875,476.078796 
	C152.900436,474.967285 150.965500,473.130310 149.807785,470.891479 
	C149.420044,470.141632 151.006897,467.243164 151.704941,467.238129 
	C157.215408,467.198364 162.917313,466.843079 166.433578,472.768707 
	C166.943359,473.627808 170.540421,473.876862 171.545761,473.029053 
	C180.619400,465.376678 191.705322,467.371002 201.881851,467.227722 
	C241.532959,466.669373 281.196564,467.000000 320.855530,467.000000 
	C332.266602,467.000000 343.679291,467.118713 355.088257,466.963654 
	C364.793549,466.831757 374.496094,466.087219 384.197144,466.137787 
	C405.258240,466.247559 426.317505,466.702850 447.378052,466.976929 
	C448.852814,466.996155 450.434814,466.966492 451.785980,466.468506 
	C454.116302,465.609711 454.993713,464.105530 452.318726,462.053162 
M218.391922,486.477661 
	C218.941696,480.621918 213.475006,481.079742 210.662628,480.518158 
	C208.279053,480.042175 204.501511,482.157043 204.200287,486.869751 
	C208.891129,486.869751 213.280731,486.869751 218.391922,486.477661 
M194.397141,498.870209 
	C198.070587,500.763214 199.157486,497.743683 199.659988,495.456299 
	C199.842087,494.627411 197.325134,492.849335 195.753143,492.135284 
	C194.914261,491.754333 192.425339,492.865387 192.451813,493.052521 
	C192.706131,494.849915 193.338181,496.593842 194.397141,498.870209 
M230.182343,665.623779 
	C229.974991,664.901123 229.767654,664.178528 229.560303,663.455872 
	C229.170685,663.594910 228.781052,663.734009 228.391418,663.873047 
	C228.786804,664.466797 229.182175,665.060608 230.182343,665.623779 
z"/>
<path fill="#FEFFFC" opacity="1.000000" stroke="none" 
	d="
M435.459412,506.838135 
	C435.465515,505.404266 435.933014,504.058624 436.569122,502.227631 
	C435.379333,501.648651 433.988953,500.972046 431.697113,499.856781 
	C433.503632,499.077454 434.682892,498.200348 435.930176,498.089661 
	C444.880188,497.295197 453.849243,496.716919 462.801666,495.947021 
	C468.641205,495.444855 474.514496,495.033997 480.278290,494.036774 
	C486.093842,493.030579 491.792877,491.350800 497.591675,488.861237 
	C496.667358,488.511932 495.761200,488.100616 494.815826,487.823059 
	C486.656219,485.427612 482.110504,479.339813 478.551575,472.144867 
	C477.318604,469.652191 476.051178,467.039520 474.217499,465.006592 
	C468.614746,458.794891 470.885254,451.982941 472.769592,445.406982 
	C475.588837,446.407867 477.845276,447.184479 480.338379,447.997498 
	C480.574982,448.033875 481.019745,448.211212 481.143585,448.394562 
	C481.482971,448.797760 481.743835,448.924194 482.285004,449.026489 
	C482.820740,449.279694 482.993317,449.546417 483.064270,450.271729 
	C483.487152,452.944550 483.736908,455.280518 484.332001,457.524963 
	C484.723419,459.001312 485.243317,461.045837 486.343842,461.626526 
	C490.839417,463.998566 495.439667,467.170105 500.262024,467.707245 
	C508.990753,468.679504 517.907349,468.076569 526.742798,467.947357 
	C535.247864,467.822998 542.822449,464.187653 549.880798,460.140778 
	C556.078064,456.587585 561.114197,451.062103 567.130493,447.121246 
	C571.073303,444.538574 573.028564,441.561707 572.932678,436.981201 
	C572.938049,436.940460 573.018677,436.924591 573.232666,436.844116 
	C573.715515,436.582031 573.875732,436.331055 573.933472,435.976318 
	C573.939636,435.941925 574.008179,435.928345 574.224792,435.845184 
	C574.713135,435.577332 574.876953,435.323090 574.941772,434.974030 
	C574.950745,434.948761 574.994507,434.917694 575.375854,434.944031 
	C581.484558,434.553406 584.086182,429.825104 586.787903,426.023560 
	C591.036560,420.045349 594.312317,413.375702 598.000061,406.998779 
	C597.427490,413.377380 596.880249,419.758392 596.272095,426.133606 
	C595.956360,429.443176 595.834839,432.813782 595.075684,436.026917 
	C594.262390,439.469604 592.802856,442.759613 591.213318,447.290924 
	C594.334229,452.958435 593.162842,457.580353 585.261963,460.080994 
	C579.998474,461.746918 577.026001,465.742371 572.943787,468.566925 
	C567.810852,472.118469 562.618042,475.594604 557.641785,479.355621 
	C555.838745,480.718292 554.585754,482.808685 553.081848,484.567047 
	C554.963623,486.171844 556.653625,488.111450 558.762817,489.319092 
	C565.272095,493.045990 572.284058,495.992767 578.440002,500.207642 
	C583.389648,503.596649 583.021973,504.891724 578.817261,509.918213 
	C580.594360,511.468994 582.163879,513.456909 584.213257,514.518799 
	C592.572815,518.850342 595.258423,527.495178 599.520752,534.777100 
	C601.136353,537.537415 599.986267,541.792114 600.675110,545.250488 
	C601.560974,549.698669 602.883545,554.078186 604.292664,558.397705 
	C605.366638,561.690002 605.471802,564.528748 602.569702,566.959595 
	C599.680481,569.379639 600.022522,574.991638 594.277832,574.997070 
	C590.673157,565.588806 588.583252,555.579285 584.010620,546.873840 
	C570.669800,521.475281 548.776489,508.076019 520.312378,507.152405 
	C492.209015,506.240479 464.053467,506.936005 435.459412,506.838135 
z"/>
<path fill="#FEFFFC" opacity="1.000000" stroke="none" 
	d="
M476.000000,319.000000 
	C473.715668,318.657623 471.306885,318.668182 469.167725,317.914032 
	C457.675781,313.862610 450.152954,321.195251 442.331329,327.264709 
	C435.211182,332.789917 430.272766,340.237915 425.345001,347.524780 
	C426.500946,342.780273 426.849335,337.321930 429.737091,334.253235 
	C436.231323,327.352203 444.032837,321.690674 451.180115,315.386169 
	C452.431152,314.282623 453.086761,312.504089 454.017334,311.037292 
	C454.017365,311.037292 454.025177,310.993378 454.040955,311.009155 
	C454.554932,310.691071 455.530640,310.189240 455.480988,310.048065 
	C454.485229,307.217346 448.844452,304.260895 445.881561,304.470123 
	C443.380554,304.646698 440.835938,304.206116 438.165161,304.029022 
	C439.338745,299.552612 442.837250,297.292816 446.363403,298.280487 
	C457.598633,301.427490 468.413788,300.663513 479.312225,296.233887 
	C484.180969,294.255005 489.802948,294.089478 495.105469,293.240662 
	C496.824036,292.965576 498.620056,293.022736 500.369476,293.123322 
	C504.164062,293.341492 506.481812,292.250488 506.137756,287.829071 
	C506.063690,286.876953 507.272797,285.824982 507.838837,284.903656 
	C508.768097,285.290009 509.138184,285.340332 509.352661,285.549866 
	C510.725525,286.891174 512.064148,288.267487 513.414062,289.632263 
	C514.872192,287.363342 516.629089,285.222595 517.677734,282.778046 
	C518.319702,281.281494 518.462463,279.042297 517.794983,277.623230 
	C516.427673,274.716278 514.363525,272.137085 512.161194,268.773712 
	C515.615540,268.676086 519.727478,268.483948 523.840210,268.465698 
	C527.720337,268.448486 531.751404,269.308441 535.441223,268.510986 
	C539.403931,267.654572 544.050720,270.225281 547.485596,266.195526 
	C547.888794,265.722473 550.283752,266.218048 551.015686,266.977509 
	C551.637512,267.622772 551.336182,269.317169 551.171814,270.509979 
	C551.042175,271.451141 550.499695,272.335480 550.067200,273.430786 
	C551.336914,274.326172 552.481323,275.133209 553.875916,276.116669 
	C550.370667,278.693481 547.699829,282.812195 542.283142,279.107635 
	C542.483093,277.877686 542.734680,276.329926 543.324890,274.340790 
	C543.964294,273.206604 544.265015,272.513794 544.565796,271.820984 
	C544.202759,271.691406 543.839661,271.561829 543.476624,271.432251 
	C543.317749,272.288177 543.158875,273.144073 543.000000,274.000000 
	C538.668701,273.752777 535.925842,276.012482 535.189514,279.998901 
	C534.696838,282.666351 542.028992,285.929535 547.075562,285.775452 
	C546.998413,287.541565 546.920044,289.334991 546.841675,291.128418 
	C548.730164,291.187073 550.628906,291.397858 552.504822,291.270966 
	C555.842590,291.045166 558.235352,290.507721 558.622192,295.728485 
	C558.838501,298.647583 562.961487,301.802673 566.001953,303.839661 
	C569.059204,305.887878 573.375916,306.072113 576.399475,308.151184 
	C582.702271,312.485260 585.960144,319.129517 588.079651,326.359833 
	C588.491577,327.764984 589.434204,329.009460 589.895508,330.406158 
	C591.325317,334.735809 592.787720,339.063843 593.965820,343.465210 
	C595.625793,349.667023 597.322266,355.882019 598.491699,362.186279 
	C599.935242,369.968567 601.596680,377.832825 601.759155,385.690704 
	C601.883850,391.720734 599.832825,397.795807 598.374878,403.457428 
	C597.999451,397.769653 598.394836,392.432129 597.825378,387.199615 
	C597.552979,384.696838 595.451294,382.393188 594.108521,379.580231 
	C591.772156,361.089172 584.933960,345.163300 571.964111,331.744232 
	C570.156738,328.470581 568.340698,325.572662 566.098938,321.995361 
	C570.607178,323.776245 574.466553,325.300812 578.410278,326.858704 
	C579.839539,322.436066 578.411011,320.040344 574.789551,318.393402 
	C565.523926,314.179718 556.196228,310.066681 547.153198,305.408936 
	C537.536316,300.455658 529.154236,292.265839 516.905701,294.915405 
	C516.188782,295.070496 515.241577,294.194489 514.535828,294.362427 
	C509.011383,295.676666 503.038300,296.215088 498.150787,298.790436 
	C493.061035,301.472351 489.319580,306.600647 484.439636,309.829712 
	C480.725922,312.287048 477.596466,314.810791 476.000000,319.000000 
M579.798523,316.393250 
	C579.794312,316.786377 579.790161,317.179535 579.785950,317.572693 
	C579.949097,317.574219 580.253967,317.586670 580.254822,317.575684 
	C580.284973,317.184479 580.286682,316.791107 579.798523,316.393250 
z"/>
<path fill="#F9FCF9" opacity="1.000000" stroke="none" 
	d="
M594.178101,379.999359 
	C595.451294,382.393188 597.552979,384.696838 597.825378,387.199615 
	C598.394836,392.432129 597.999451,397.769653 598.001404,403.532623 
	C598.001648,404.750610 598.000854,405.500000 598.000000,406.624084 
	C594.312317,413.375702 591.036560,420.045349 586.787903,426.023560 
	C584.086182,429.825104 581.484558,434.553406 575.500061,434.636292 
	C582.139893,427.074951 586.544006,418.387299 590.070007,409.162842 
	C593.669800,399.745270 594.743958,389.993011 594.178101,379.999359 
z"/>
<path fill="#FEFFFC" opacity="1.000000" stroke="none" 
	d="
M606.478271,583.598816 
	C607.030579,583.038086 607.716309,582.773071 608.402100,582.508057 
	C608.467163,583.078369 608.532227,583.648743 608.597290,584.219055 
	C607.935425,584.110901 607.273621,584.002747 606.478271,583.598816 
z"/>
<path fill="#FEFFFC" opacity="1.000000" stroke="none" 
	d="
M391.429321,506.843384 
	C392.487061,503.162384 395.201996,502.862671 397.982910,506.370697 
	C395.954773,506.813202 393.907654,506.871979 391.429321,506.843384 
z"/>
<path fill="#FCFFFD" opacity="1.000000" stroke="none" 
	d="
M207.998154,599.650146 
	C205.817657,599.286133 204.375748,598.320740 206.821838,596.000610 
	C207.451294,597.068420 207.751892,598.184265 207.998154,599.650146 
z"/>
<path fill="#FEFFFC" opacity="1.000000" stroke="none" 
	d="
M415.368500,506.840576 
	C415.462585,505.888275 415.927063,505.023621 416.391541,504.158936 
	C416.921143,504.792084 417.450745,505.425232 417.991150,506.405792 
	C417.247559,506.811554 416.493225,506.869873 415.368500,506.840576 
z"/>
<path fill="#F1F3F1" opacity="1.000000" stroke="none" 
	d="
M245.386139,516.112610 
	C246.242126,515.266235 247.427490,514.392151 248.809158,513.766357 
	C247.908813,514.704712 246.812149,515.394836 245.386139,516.112610 
z"/>
<path fill="#FCFFFD" opacity="1.000000" stroke="none" 
	d="
M453.658813,311.036560 
	C453.086761,312.504089 452.431152,314.282623 451.180115,315.386169 
	C444.032837,321.690674 436.231323,327.352203 429.737091,334.253235 
	C426.849335,337.321930 426.500946,342.780273 424.999969,347.576965 
	C424.381073,349.451385 423.824524,350.933228 423.132782,352.348999 
	C419.768707,359.234070 416.427063,366.131439 412.934662,372.951294 
	C412.179108,374.426727 410.835297,375.600861 409.399719,376.956940 
	C411.342010,354.562958 421.156921,335.951050 438.114014,321.246552 
	C442.688049,317.280151 448.212250,314.409485 453.658813,311.036560 
z"/>
<path fill="#F59E0B" opacity="1.000000" stroke="none" 
	d="
M594.108521,379.580231 
	C594.743958,389.993011 593.669800,399.745270 590.070007,409.162842 
	C586.544006,418.387299 582.139893,427.074951 575.118652,434.609924 
	C574.994507,434.917694 574.950745,434.948761 574.707092,435.032257 
	C574.158386,435.300690 574.006653,435.571564 574.008179,435.928345 
	C574.008179,435.928345 573.939636,435.941925 573.701599,436.031952 
	C573.161682,436.304382 573.013367,436.571930 573.018677,436.924591 
	C573.018677,436.924591 572.938049,436.940460 572.624390,437.096680 
	C568.391968,440.490479 564.688049,444.040344 560.516418,446.910187 
	C544.452820,457.960846 526.530945,461.456238 507.582214,457.893982 
	C499.195953,456.317352 491.207062,452.626892 483.037781,449.896027 
	C482.993317,449.546417 482.820740,449.279694 482.197998,448.797607 
	C481.672455,448.160156 481.387054,448.064087 481.019745,448.211212 
	C481.019745,448.211212 480.574982,448.033875 480.188568,447.689453 
	C477.554169,445.867065 475.306152,444.389130 473.058167,442.911194 
	C473.058167,442.911194 473.013306,442.981781 472.965454,442.721191 
	C472.626007,442.284027 472.334442,442.107483 472.042847,441.930969 
	C472.042847,441.930969 472.005585,441.997192 471.956238,441.733002 
	C471.621246,441.300415 471.335571,441.132050 471.049896,440.963654 
	C471.049896,440.963654 471.005127,440.995117 470.947937,440.734436 
	C470.699585,440.164398 470.422272,440.004700 470.058807,439.994598 
	C470.058807,439.994598 470.040039,439.961823 469.909851,439.655945 
	C468.873199,438.868958 467.966766,438.387848 467.040588,437.949097 
	C467.020844,437.991486 467.097717,437.938324 467.043579,437.600800 
	C465.339142,435.474915 463.688843,433.686554 461.899780,431.582947 
	C458.234070,425.033356 454.142731,419.044830 451.298126,412.513336 
	C445.449463,399.084015 444.652008,384.863953 446.876740,370.527435 
	C448.497345,360.083984 453.673431,351.021484 459.342377,341.967743 
	C460.462280,340.571136 461.279114,339.313568 462.073730,338.046143 
	C462.051453,338.036316 462.070221,338.082336 462.070221,338.082336 
	C463.312042,336.947723 464.553864,335.813110 466.163269,334.294250 
	C466.709045,333.620819 466.887268,333.331604 467.065491,333.042389 
	C467.065491,333.042389 467.002441,333.002869 467.269104,332.952698 
	C467.712311,332.616058 467.888885,332.329620 468.065430,332.043152 
	C468.065430,332.043152 468.002777,332.002441 468.269958,331.952118 
	C468.716888,331.615265 468.896606,331.328735 469.076355,331.042206 
	C469.076355,331.042206 469.008453,331.006470 469.275177,330.958771 
	C469.723083,330.621399 469.904266,330.331726 470.085449,330.042053 
	C470.085419,330.042053 470.013489,330.013245 470.277405,329.963074 
	C470.724976,329.622498 470.908600,329.332123 471.092194,329.041718 
	C471.092194,329.041718 471.013275,329.012238 471.353180,328.910065 
	C472.882629,327.945801 474.108429,327.129181 475.256348,326.214813 
	C492.099304,312.798431 511.788086,309.904633 532.215942,312.355652 
	C547.449829,314.183502 560.517700,321.881287 571.955444,332.119965 
	C584.933960,345.163300 591.772156,361.089172 594.108521,379.580231 
z"/>
<path fill="#FCFFFD" opacity="1.000000" stroke="none" 
	d="
M571.964111,331.744232 
	C560.517700,321.881287 547.449829,314.183502 532.215942,312.355652 
	C511.788086,309.904633 492.099304,312.798431 475.256348,326.214813 
	C474.108429,327.129181 472.882629,327.945801 471.376099,328.945404 
	C472.681885,325.956177 474.304626,322.829468 475.963684,319.351379 
	C477.596466,314.810791 480.725922,312.287048 484.439636,309.829712 
	C489.319580,306.600647 493.061035,301.472351 498.150787,298.790436 
	C503.038300,296.215088 509.011383,295.676666 514.535828,294.362427 
	C515.241577,294.194489 516.188782,295.070496 516.905701,294.915405 
	C529.154236,292.265839 537.536316,300.455658 547.153198,305.408936 
	C556.196228,310.066681 565.523926,314.179718 574.789551,318.393402 
	C578.411011,320.040344 579.839539,322.436066 578.410278,326.858704 
	C574.466553,325.300812 570.607178,323.776245 566.098938,321.995361 
	C568.340698,325.572662 570.156738,328.470581 571.964111,331.744232 
z"/>
<path fill="#FEFFFC" opacity="1.000000" stroke="none" 
	d="
M459.039337,342.106781 
	C453.673431,351.021484 448.497345,360.083984 446.876740,370.527435 
	C444.652008,384.863953 445.449463,399.084015 451.298126,412.513336 
	C454.142731,419.044830 458.234070,425.033356 461.891327,431.956665 
	C463.713623,434.409912 465.405670,436.174133 467.097717,437.938324 
	C467.097717,437.938324 467.020844,437.991486 467.019409,438.297913 
	C467.011993,439.069580 467.006012,439.534790 467.000000,440.000000 
	C465.412231,443.643158 463.581421,441.734894 461.745209,440.242981 
	C454.747406,434.557343 450.743469,426.746857 446.476562,419.072968 
	C443.836517,414.324890 440.079895,410.109619 438.008270,405.159729 
	C436.160736,400.745422 435.432007,395.685669 435.096497,390.849182 
	C434.120911,376.786011 435.800415,363.130585 442.563843,350.413696 
	C443.352386,348.931061 443.035706,346.860596 443.134644,345.951508 
	C445.808228,344.205200 448.085571,342.970581 450.057770,341.361816 
	C452.235962,339.585114 453.998016,337.295166 456.190247,335.539551 
	C458.773499,333.470825 461.067871,333.473511 462.015442,337.717224 
	C462.070221,338.082336 462.051453,338.036316 461.704315,338.066711 
	C460.584564,339.433655 459.811951,340.770233 459.039337,342.106781 
z"/>
<path fill="#FCFFFD" opacity="1.000000" stroke="none" 
	d="
M218.031128,486.673706 
	C213.280731,486.869751 208.891129,486.869751 204.200287,486.869751 
	C204.501511,482.157043 208.279053,480.042175 210.662628,480.518158 
	C213.475006,481.079742 218.941696,480.621918 218.031128,486.673706 
z"/>
<path fill="#FCFFFD" opacity="1.000000" stroke="none" 
	d="
M194.129593,498.611633 
	C193.338181,496.593842 192.706131,494.849915 192.451813,493.052521 
	C192.425339,492.865387 194.914261,491.754333 195.753143,492.135284 
	C197.325134,492.849335 199.842087,494.627411 199.659988,495.456299 
	C199.157486,497.743683 198.070587,500.763214 194.129593,498.611633 
z"/>
<path fill="#F9FCF9" opacity="1.000000" stroke="none" 
	d="
M473.040466,443.259094 
	C475.306152,444.389130 477.554169,445.867065 479.951965,447.653076 
	C477.845276,447.184479 475.588837,446.407867 473.165588,445.315613 
	C473.006775,444.535675 473.014740,444.071350 473.040466,443.259094 
z"/>
<path fill="#FCFFFD" opacity="1.000000" stroke="none" 
	d="
M229.879944,665.639038 
	C229.182175,665.060608 228.786804,664.466797 228.391418,663.873047 
	C228.781052,663.734009 229.170685,663.594910 229.560303,663.455872 
	C229.767654,664.178528 229.974991,664.901123 229.879944,665.639038 
z"/>
<path fill="#F9FCF9" opacity="1.000000" stroke="none" 
	d="
M467.376282,440.000000 
	C467.006012,439.534790 467.011993,439.069580 467.039154,438.255554 
	C467.966766,438.387848 468.873199,438.868958 469.892822,439.647766 
	C469.254852,439.963654 468.503693,439.981812 467.376282,440.000000 
z"/>
<path fill="#F9FCF9" opacity="1.000000" stroke="none" 
	d="
M471.147064,441.194275 
	C471.335571,441.132050 471.621246,441.300415 471.988342,441.712646 
	C471.794556,441.779297 471.519379,441.602112 471.147064,441.194275 
z"/>
<path fill="#F9FCF9" opacity="1.000000" stroke="none" 
	d="
M472.143433,442.168579 
	C472.334442,442.107483 472.626007,442.284027 473.005402,442.708862 
	C472.810150,442.773529 472.527069,442.589874 472.143433,442.168579 
z"/>
<path fill="#F9FCF9" opacity="1.000000" stroke="none" 
	d="
M470.150085,440.217316 
	C470.422272,440.004700 470.699585,440.164398 470.962982,440.711578 
	C470.701538,440.887207 470.436920,440.717407 470.150085,440.217316 
z"/>
<path fill="#FCFFFD" opacity="1.000000" stroke="none" 
	d="
M466.829437,333.145142 
	C466.887268,333.331604 466.709045,333.620819 466.285889,334.001465 
	C466.225098,333.811249 466.409241,333.529572 466.829437,333.145142 
z"/>
<path fill="#FCFFFD" opacity="1.000000" stroke="none" 
	d="
M467.831604,332.141235 
	C467.888885,332.329620 467.712311,332.616058 467.289429,332.983826 
	C467.228027,332.789886 467.412903,332.514618 467.831604,332.141235 
z"/>
<path fill="#FCFFFD" opacity="1.000000" stroke="none" 
	d="
M468.840576,331.139771 
	C468.896606,331.328735 468.716888,331.615265 468.290131,331.983551 
	C468.230377,331.789307 468.417603,331.513306 468.840576,331.139771 
z"/>
<path fill="#FCFFFD" opacity="1.000000" stroke="none" 
	d="
M469.847290,330.140503 
	C469.904266,330.331726 469.723083,330.621399 469.292053,330.993225 
	C469.231201,330.796539 469.420166,330.517700 469.847290,330.140503 
z"/>
<path fill="#FCFFFD" opacity="1.000000" stroke="none" 
	d="
M470.851959,329.140991 
	C470.908600,329.332123 470.724976,329.622498 470.291626,329.999084 
	C470.231842,329.803650 470.421783,329.521973 470.851959,329.140991 
z"/>
<path fill="#F9FCF9" opacity="1.000000" stroke="none" 
	d="
M483.064270,450.271729 
	C491.207062,452.626892 499.195953,456.317352 507.582214,457.893982 
	C526.530945,461.456238 544.452820,457.960846 560.516418,446.910187 
	C564.688049,444.040344 568.391968,440.490479 572.619019,437.137451 
	C573.028564,441.561707 571.073303,444.538574 567.130493,447.121246 
	C561.114197,451.062103 556.078064,456.587585 549.880798,460.140778 
	C542.822449,464.187653 535.247864,467.822998 526.742798,467.947357 
	C517.907349,468.076569 508.990753,468.679504 500.262024,467.707245 
	C495.439667,467.170105 490.839417,463.998566 486.343842,461.626526 
	C485.243317,461.045837 484.723419,459.001312 484.332001,457.524963 
	C483.736908,455.280518 483.487152,452.944550 483.064270,450.271729 
z"/>
<path fill="#F9FCF9" opacity="1.000000" stroke="none" 
	d="
M481.143585,448.394562 
	C481.387054,448.064087 481.672455,448.160156 481.962952,448.728271 
	C481.743835,448.924194 481.482971,448.797760 481.143585,448.394562 
z"/>
<path fill="#F9FCF9" opacity="1.000000" stroke="none" 
	d="
M573.232666,436.844116 
	C573.013367,436.571930 573.161682,436.304382 573.695435,436.066345 
	C573.875732,436.331055 573.715515,436.582031 573.232666,436.844116 
z"/>
<path fill="#F9FCF9" opacity="1.000000" stroke="none" 
	d="
M574.224792,435.845184 
	C574.006653,435.571564 574.158386,435.300690 574.698120,435.057526 
	C574.876953,435.323090 574.713135,435.577332 574.224792,435.845184 
z"/>
<path fill="#FCFFFD" opacity="1.000000" stroke="none" 
	d="
M543.331787,273.949707 
	C543.158875,273.144073 543.317749,272.288177 543.476624,271.432251 
	C543.839661,271.561829 544.202759,271.691406 544.565796,271.820984 
	C544.265015,272.513794 543.964294,273.206604 543.331787,273.949707 
z"/>
<path fill="#FCFFFD" opacity="1.000000" stroke="none" 
	d="
M580.045471,316.395630 
	C580.286682,316.791107 580.284973,317.184479 580.254822,317.575684 
	C580.253967,317.586670 579.949097,317.574219 579.786011,317.572693 
	C579.790161,317.179535 579.794312,316.786377 580.045471,316.395630 
z"/>
<path fill="#F9FCF9" opacity="1.000000" stroke="none" 
	d="
M467.043579,437.600800 
	C465.405670,436.174133 463.713623,434.409912 462.030090,432.271973 
	C463.688843,433.686554 465.339142,435.474915 467.043579,437.600800 
z"/>
<path fill="#FCFFFD" opacity="1.000000" stroke="none" 
	d="
M459.342377,341.967743 
	C459.811951,340.770233 460.584564,339.433655 461.726562,338.076538 
	C461.279114,339.313568 460.462280,340.571136 459.342377,341.967743 
z"/>
</svg>